<svg width="100" height="100" viewBox="0 0 100 100" fill="none" xmlns="http://www.w3.org/2000/svg">
  <!-- Champagne background circle -->
  <circle cx="50" cy="50" r="50" fill="#FBEAD6"/>

  <!-- Main Ring -->
  <circle cx="50" cy="50" r="38" stroke="#1A1818" stroke-width="1.6"/>

  <!-- Top Left Leafy Botanical Branch -->
  <path d="M 26 36 C 18 26 26 14 38 20 C 34 26 26 30 26 36 Z" stroke="#1A1818" stroke-width="1.4" stroke-linecap="round" stroke-linejoin="round"/>
  <path d="M 24 32 C 16 24 24 16 30 22" stroke="#1A1818" stroke-width="1.3" stroke-linecap="round"/>
  <path d="M 30 24 C 26 14 36 10 38 18" stroke="#1A1818" stroke-width="1.3" stroke-linecap="round"/>
  <path d="M 36 20 C 34 12 44 12 42 20" stroke="#1A1818" stroke-width="1.3" stroke-linecap="round"/>
  <path d="M 20 34 C 14 30 18 22 24 28" stroke="#1A1818" stroke-width="1.3" stroke-linecap="round"/>

  <!-- Monogram 'E' -->
  <text x="33" y="60" font-family="Georgia, serif" font-size="34" font-weight="500" fill="#1A1818">E</text>

  <!-- Monogram 'W' italic overlay -->
  <text x="48" y="64" font-family="Georgia, serif" font-size="46" font-style="italic" font-weight="300" fill="#1A1818">W</text>

  <!-- Bottom Right 3 Dots -->
  <circle cx="68" cy="74" r="1.6" fill="#1A1818"/>
  <circle cx="74" cy="69" r="1.6" fill="#1A1818"/>
  <circle cx="79" cy="63" r="1.6" fill="#1A1818"/>
</svg>
